<svg id="Capa_1" data-name="Capa 1" xmlns="http://www.w3.org/2000/svg" viewBox="0 0 372.8 337.44"><path d="M259.6,209.9c1,4.82,2,9.66,3.06,14.48,7.39,33.91,16.13,67.46,26.48,100.58,2,6.49,3.15,13,1.79,19.69A23.11,23.11,0,0,1,284.2,357c-9.08,8.72-19.9,11.82-32.37,10.24-13.72-1.74-21.06-10.64-24.87-22.61a1165.21,1165.21,0,0,1-32.62-128.31q-7-35.72-11.87-71.79a42.42,42.42,0,0,1,2.84-23c4.27-9.9,12.21-15,22.33-17.44,9.53-2.33,17.88.32,25.79,5.43a720.93,720.93,0,0,1,104.28,81.63c6,5.7,11.9,11.56,17.84,17.34.24.24.51.45,1,.85,0-3.44,0-6.62,0-9.8q0-15.75-.11-31.51c0-15.34-.13-30.68-.08-46,0-5.59-.16-11.27.72-16.76C359,93,366.46,85.18,378.55,82s23.12-1.35,32.89,6.47c5.67,4.55,8.25,11,9.4,18a58.73,58.73,0,0,1,.73,9.08c.09,12.05.05,24.11.08,36.17q.15,43.77.3,87.54.06,18.09.06,36.17c0,5.73.29,11.48-.08,17.18A33.65,33.65,0,0,1,386.62,324c-8.47-.44-15.32-4.6-21-10.69-9.26-10-18.16-20.28-27.68-30q-20.61-21-42-41.28c-11.29-10.71-23.11-20.87-34.69-31.27-.44-.39-.9-.74-1.35-1.11Z" transform="translate(-49.32 -80.46)"/><path d="M49.32,164.29a60.06,60.06,0,1,1,59.76,60.23A59.93,59.93,0,0,1,49.32,164.29Z" transform="translate(-49.32 -80.46)"/><path d="M166.73,343c-.26,5.41-.5,10.83-.79,16.23a5.44,5.44,0,0,1-4.1,5.3c-4.85,1.39-9.72,2.84-14.67,3.77-6.5,1.23-13.07,2-19.75,1.3-2.65-.29-4.6-1.33-5.53-3.79-2.11-5.63-4.4-11.21-6.07-17A707.83,707.83,0,0,1,97.6,265.81c-.71-4.35-1-8.76-1.5-13.14a6.44,6.44,0,0,1,2.43-6,31.12,31.12,0,0,1,6.63-4.13,81,81,0,0,1,40.23-6.13,26.44,26.44,0,0,1,3.5.7,7.42,7.42,0,0,1,6,6.21,395.54,395.54,0,0,1,6.63,41.29c1.6,14.4,2.85,28.84,4.12,43.27.45,5.05.54,10.12.79,15.18Z" transform="translate(-49.32 -80.46)"/><path d="M71.22,379.52c1.91.1,3.93-.17,5.72.34,13.76,4,27.83,6,42.05,7.28a456.51,456.51,0,0,0,48.06,2.12c14.91-.23,29.81-.79,44.71-1.38,5.53-.22,11.07-.71,16.56-1.44,24.33-3.27,48.74-6,72.81-10.88,10.16-2.06,20.17-4.8,30.25-7.23l1.75-.39a22.09,22.09,0,0,1-2.6,11c-2.67,4.93-6.88,8.32-11.41,11.39-8.88,6-18.79,9.74-29,12.81a272.87,272.87,0,0,1-48.68,9.71c-13.69,1.51-27.41,2.67-41.12,4-26.29,2.54-52.26.23-78-5.44a119.13,119.13,0,0,1-30.51-11,57.46,57.46,0,0,1-17.34-13.91,47,47,0,0,1-3.78-6.27Z" transform="translate(-49.32 -80.46)"/></svg>